# xmcd CD database file
#
# Track frame offsets:
#	225
#	21004
#	37640
#	62898
#	76111
#	91204
#	111444
#	124258
#	143708
#	158821
#	171282
#	185730
#	197986
#	210002
#	228764
#	261009
#	274232
#	294328
#	299374
#	318770
#
# Disc length: 4579 seconds
#
# Revision: 0
# Processed by: cddbd v1.5.2PL0 Copyright (c) Steve Scherf et al.
# Submitted via: CDex 1.51
#
DISCID=1511e014
DTITLE=Johnny Dankworth and His Orchestra - 5 Steps To Dankworth
DYEAR=2008
DGENRE=Jazz
TTITLE0=Export Blues
TTITLE1=The Laurie Monk Quartet - Somerset Morn
TTITLE2=Just a Sittin' And A Rockin'
TTITLE3=The Dickie Hawdon Quintet - One For Janet
TTITLE4=Somebody Loves Me
TTITLE5=Hullabaloo
TTITLE6=The Laurie Monk Quartet - Horoscope
TTITLE7=Stompin' At The Savoy
TTITLE8=The Dickie Hawdon Quintet - Magenta Midget
TTITLE9=Limehouse Blues
TTITLE10=Firth Of Fourths
TTITLE11=Coquette
TTITLE12=Adios
TTITLE13=Jersey Bounce
TTITLE14=Take The 'A' Train
TTITLE15=Johnny Dankworth introduction
TTITLE16=Itinery of An Orchestra First Section (First theme)
TTITLE17=Itinery of An Orchestra Second Section (2nd and 3rd themes)
TTITLE18=Itinery of An Orchestra Third Section (Including slow movement
TTITLE19=Itinery of An Orchestra Fourth Section (finale)
EXTD=YEAR: 2008
EXTT0=
EXTT1=
EXTT2=
EXTT3=
EXTT4=
EXTT5=
EXTT6=
EXTT7=
EXTT8=
EXTT9=
EXTT10=
EXTT11=
EXTT12=
EXTT13=
EXTT14=
EXTT15=
EXTT16=
EXTT17=
EXTT18=
EXTT19=
PLAYORDER=
